G04 Filename: patchArray2x2.gtl*
G04 FileFunction: Copper,L1,Top,Signal*
G04 Part: Single*
G04 ProjectId: patchArray2x2,3612FF9035D002ABA784B3A25AC1EC76,1*
G04 GenerationSoftware: MathWorks,MATLAB,23.2.0.2320655 (R2023b) Prerelease Update 3*
G04 CreationDate: 2023-12-23T21:13:90-0500*
G04 FilePolarity: Positive*
%FSLAX16Y16*%
%MOIN*%
%ADD10C,0.05905511811*%  G04 Connect signal to connector*
G04 Antenna metal layer 1*
%LPD*%
G01*
G36*
X-1864025Y1864025D02*
X-0471164D01*
X-0201414Y1594275D01*
Y0201414D01*
X-0971463D01*
Y0151060D01*
X-1000144D01*
Y0061257D01*
X-0104714D01*
X-0104714Y0061257D01*
X0104714D01*
X0104714Y0061257D01*
X1000144D01*
Y0151060D01*
X0971463D01*
Y0201414D01*
X0471164D01*
X0201414Y0471164D01*
Y1864025D01*
X1594275D01*
X1864025Y1594275D01*
Y0201414D01*
X1093976D01*
Y0151060D01*
X1065295D01*
Y-0151060D01*
X1093976D01*
Y-0201414D01*
X1594275D01*
X1864025Y-0471164D01*
Y-1864025D01*
X0471164D01*
X0201414Y-1594275D01*
Y-0201414D01*
X0971463D01*
Y-0151060D01*
X1000144D01*
Y-0061257D01*
X0104714D01*
Y-1232128D01*
X0061257D01*
Y-3818898D01*
X-0061257D01*
Y-1232128D01*
X-0104714D01*
Y-0061257D01*
X-1000144D01*
Y-0151060D01*
X-0971463D01*
Y-0201414D01*
X-0471164D01*
X-0201414Y-0471164D01*
Y-1864025D01*
X-1594275D01*
X-1864025Y-1594275D01*
Y-0201414D01*
X-1093976D01*
Y-0151060D01*
X-1065295D01*
Y0151060D01*
X-1093976D01*
Y0201414D01*
X-1594275D01*
X-1864025Y0471164D01*
Y1864025D01*
G37*
G04 Add SMAEdge connector*
G04  - Remove copper from signal plane*
%LPC*%
G36*
X-0147638Y-3937008D02*
X0147638D01*
Y-3761811D01*
X-0147638D01*
Y-3937008D01*
D02*
G37*
G04  - Add pads*
%LPD*%
G36*
X-0137795D02*
X-0084646D01*
Y-3771654D01*
X-0137795D01*
Y-3937008D01*
D02*
G37*
G36*
X0084646D02*
X0137795D01*
Y-3771654D01*
X0084646D01*
Y-3937008D01*
D02*
G37*
G36*
X-0025000Y-3933071D02*
X0025000D01*
Y-3787402D01*
X-0025000D01*
Y-3933071D01*
D02*
G37*
G04  - Add traces*
D10*
X0000000Y-3761811D02*
Y-3791339D01*
G04 MD5: c12c8682b959abf126f2ad7207f2813cbae81cfa5d7af2601188b1696046f516bad46d256e3bf96ac89693a21169072ea6745ba159c8707a3f61b4fc54ba*
M02*
